<svg aria-hidden="true" focusable="false" xmlns="http://www.w3.org/2000/svg" version="1.1" viewBox="0 0 632 316">

  <path d="M452.34,115.99c0,35.76-28.99,64.75-64.75,64.75s-64.75-28.99-64.75-64.75,28.99-64.75,64.75-64.75,64.75,28.99,64.75,64.75ZM421.86,115.52c0-18.87-15.29-34.16-34.16-34.16s-34.16,15.29-34.16,34.16,15.29,34.16,34.16,34.16,34.16-15.29,34.16-34.16Z"/>
  <path d="M278.63,116.69c-.11-18.68-14.95-32.56-32.29-33.69s-34.75,11.81-35.89,30.12l-.69,67.82-30.59-.13.3-66.5c.11-23.28,14.93-44.11,33.79-54.24,21.82-11.73,47.57-10.45,67.24,3.23,17.2,11.96,28.27,30.69,28.34,51.65l.22,65.95-30.05-.02-.37-64.2Z"/>
  <polygon points="102.64 264.53 69.68 264.73 151.33 52.1 184.15 52.08 102.64 264.53"/>
  <polygon points="529.89 180.89 497.23 180.62 546.51 52.1 579.26 52.07 529.89 180.89"/>
  <path d="M107.49,109.1c4.75,15.88-2.73,32.09-18.03,39.19L52.83,52.24l32.74-.2,21.92,57.06Z"/>
  <path d="M502.5,108.93c4.38,16.19-2.56,32.6-17.55,39.29l-37.1-96.17h32.88s21.77,56.88,21.77,56.88Z"/>
  <path d="M346.67,264.56l-.21-38.49-15.16,32.46c-1.86.38-4.79.35-6.31-.24l-14.84-31.92-.33,38.41-7.82-.02v-51.41s9.62.06,9.62.06l16.68,34.19,16.36-34.12,9.34-.24.02,51.55-7.34-.21Z"/>
  <path d="M273.64,253.01l-25.91-.14-4.99,11.91-7.9-.07,21.12-51.14,9.47-.08,21.1,50.97-8.58.03-4.32-11.49ZM269.72,244.86l-9.71-23.13-9.71,23.28,19.42-.15Z"/>
  <path d="M400.17,248.62l-15.24.47-.04,15.65-8.04-.03.03-51.52,21.51.28c9.4.12,16.67,6.27,17.28,15.78,1.13,9.68-4.82,19.04-15.49,19.37ZM400.59,240.97c4.33-.21,6.97-5.58,7.37-8.61.46-3.47-.9-8.43-4.47-9.79-6.21-2.37-12.38-1.79-19.18-1.37l.23,20.56,16.06-.79Z"/>
  <path d="M523.06,261.61c-10.62,5.2-22.49,3-31.06-4.78l3.17-7.18c9.78,9.18,24.42,9.38,25.97,2.75.51-2.18-.83-6.71-2.9-7.47l-13.26-4.85c-5.74-2.1-9.72-5.67-10.31-11.42-.5-4.89,1.37-10.93,6.66-13.33,9.09-4.11,19.4-2.79,27.83,2.68l-2.78,7.16c-9.35-5.88-21.39-6.55-22.68-.64-.49,2.24.94,6.56,3.22,7.4l13.96,5.17c5.1,1.89,8.58,6.15,9.2,10.5.84,5.84-1.26,11.18-7.03,14Z"/>
  <path d="M466.77,213.54l8-.11-.19,31.16c-.05,8.61-4.94,16.39-13.27,18.63-7.46,2.01-15.32,1.73-21.9-2.8-3.78-2.61-7.11-8.53-7.15-13.45l-.26-33.68,7.94.03.26,31.5c.07,8.66,7.92,13.39,15.93,12.32,7.21-.96,11.86-7.85,10.75-15.06l-.11-28.54Z"/>
  <path d="M218.57,250.94l4.77,5.3c-10.14,10.16-27.07,11.25-37.4.78-9.24-9.37-9.55-25.22-1.15-35.13,10.07-11.88,27.64-11.71,38.53-1.16l-4.96,5.88c-6.56-7.42-14.85-8.35-22.43-4.19-7.02,3.86-10.46,12.62-8.24,20.74,1.79,6.55,6.37,11.25,11.93,13.02,6.99,2.22,13.42.18,18.94-5.24Z"/>
</svg>
